<svg id="emkd1gxx4i0i1" xmlns="http://www.w3.org/2000/svg" xmlns:xlink="http://www.w3.org/1999/xlink" viewBox="0 0 199.850000 199.850000" shape-rendering="geometricPrecision" text-rendering="geometricPrecision"><style><![CDATA[#emkd1gxx4i0i2_ts {animation: emkd1gxx4i0i2_ts__ts 3000ms linear infinite normal forwards}@keyframes emkd1gxx4i0i2_ts__ts { 0% {transform: translate(99.923828px,99.923828px) scale(1,1)} 73.333333% {transform: translate(99.923828px,99.923828px) scale(1,1)} 96.666667% {transform: translate(99.923828px,99.923828px) scale(0,1)} 100% {transform: translate(99.923828px,99.923828px) scale(0,1)} }#emkd1gxx4i0i3 {animation: emkd1gxx4i0i3_c_o 3000ms linear infinite normal forwards}@keyframes emkd1gxx4i0i3_c_o { 0% {opacity: 0} 16.666667% {opacity: 0} 66.666667% {opacity: 1} 86.666667% {opacity: 1} 93.333333% {opacity: 0} 100% {opacity: 0} }#emkd1gxx4i0i6 {animation: emkd1gxx4i0i6_c_o 3000ms linear infinite normal forwards}@keyframes emkd1gxx4i0i6_c_o { 0% {opacity: 0} 10% {opacity: 1} 90% {opacity: 1} 96.666667% {opacity: 0} 100% {opacity: 0} }#emkd1gxx4i0i7 {animation: emkd1gxx4i0i7_c_o 3000ms linear infinite normal forwards}@keyframes emkd1gxx4i0i7_c_o { 0% {opacity: 0} 16.666667% {opacity: 1} 90% {opacity: 1} 96.666667% {opacity: 0} 100% {opacity: 0} }#emkd1gxx4i0i8 {animation: emkd1gxx4i0i8_c_o 3000ms linear infinite normal forwards}@keyframes emkd1gxx4i0i8_c_o { 0% {opacity: 0} 23.333333% {opacity: 1} 90% {opacity: 1} 96.666667% {opacity: 0} 100% {opacity: 0} }#emkd1gxx4i0i9 {animation: emkd1gxx4i0i9_c_o 3000ms linear infinite normal forwards}@keyframes emkd1gxx4i0i9_c_o { 0% {opacity: 0} 30% {opacity: 1} 90% {opacity: 1} 96.666667% {opacity: 0} 100% {opacity: 0} }#emkd1gxx4i0i10 {animation: emkd1gxx4i0i10_c_o 3000ms linear infinite normal forwards}@keyframes emkd1gxx4i0i10_c_o { 0% {opacity: 0} 36.666667% {opacity: 1} 90% {opacity: 1} 96.666667% {opacity: 0} 100% {opacity: 0} }#emkd1gxx4i0i12 {animation: emkd1gxx4i0i12_c_o 3000ms linear infinite normal forwards}@keyframes emkd1gxx4i0i12_c_o { 0% {opacity: 0} 50% {opacity: 0} 66.666667% {opacity: 1} 86.666667% {opacity: 1} 93.333333% {opacity: 0} 100% {opacity: 0} }#emkd1gxx4i0i15 {animation: emkd1gxx4i0i15_c_o 3000ms linear infinite normal forwards}@keyframes emkd1gxx4i0i15_c_o { 0% {opacity: 0} 63.333333% {opacity: 0} 76.666667% {opacity: 1} 86.666667% {opacity: 1} 93.333333% {opacity: 0} 100% {opacity: 0} }]]></style><g id="emkd1gxx4i0i2_ts" transform="translate(99.923828,99.923828) scale(1,1)"><g id="emkd1gxx4i0i2" transform="translate(-99.923828,-99.923828)"><g id="emkd1gxx4i0i3" opacity="0"><path id="emkd1gxx4i0i4" d="M49.970000,13.400000C97.760000,-14.190000,158.860000,2.190000,186.450000,49.970000C214.030000,97.760000,197.660000,158.860000,149.880000,186.450000C102.090000,214.030000,40.990000,197.660000,13.400000,149.880000C-14.190000,102.090000,2.190000,40.990000,49.970000,13.400000Z" clip-rule="evenodd" fill="rgb(0,160,227)" fill-rule="evenodd" stroke="none" stroke-width="1"/><path id="emkd1gxx4i0i5" d="M50.590000,25.220000C93.330000,0.540000,147.990000,15.180000,172.670000,57.930000C197.340000,100.670000,182.700000,155.330000,139.950000,180.010000C97.210000,204.680000,42.550000,190.040000,17.880000,147.290000C-6.800000,104.550000,7.840000,49.890000,50.590000,25.220000Z" clip-rule="evenodd" fill="rgb(254,254,254)" fill-rule="evenodd" stroke="none" stroke-width="1"/></g><path id="emkd1gxx4i0i6" d="M49.250000,121.540000C53.520000,121.540000,56.980000,125.010000,56.980000,129.280000C56.980000,133.550000,53.520000,137.020000,49.250000,137.020000C44.970000,137.020000,41.510000,133.550000,41.510000,129.280000C41.510000,125.010000,44.970000,121.540000,49.250000,121.540000Z" opacity="0" clip-rule="evenodd" fill="rgb(43,42,41)" fill-rule="evenodd" stroke="none" stroke-width="1"/><path id="emkd1gxx4i0i7" d="M68.390000,121.540000C72.670000,121.540000,76.130000,125.010000,76.130000,129.280000C76.130000,133.550000,72.670000,137.020000,68.390000,137.020000C64.120000,137.020000,60.650000,133.550000,60.650000,129.280000C60.650000,125.010000,64.120000,121.540000,68.390000,121.540000Z" opacity="0" clip-rule="evenodd" fill="rgb(43,42,41)" fill-rule="evenodd" stroke="none" stroke-width="1"/><path id="emkd1gxx4i0i8" d="M87.540000,121.540000C91.810000,121.540000,95.280000,125.010000,95.280000,129.280000C95.280000,133.550000,91.810000,137.020000,87.540000,137.020000C83.270000,137.020000,79.800000,133.550000,79.800000,129.280000C79.800000,125.010000,83.270000,121.540000,87.540000,121.540000Z" opacity="0" clip-rule="evenodd" fill="rgb(43,42,41)" fill-rule="evenodd" stroke="none" stroke-width="1"/><path id="emkd1gxx4i0i9" d="M106.690000,121.540000C110.960000,121.540000,114.420000,125.010000,114.420000,129.280000C114.420000,133.550000,110.960000,137.020000,106.690000,137.020000C102.410000,137.020000,98.950000,133.550000,98.950000,129.280000C98.950000,125.010000,102.410000,121.540000,106.690000,121.540000Z" opacity="0" clip-rule="evenodd" fill="rgb(43,42,41)" fill-rule="evenodd" stroke="none" stroke-width="1"/><path id="emkd1gxx4i0i10" d="M125.830000,121.540000C130.110000,121.540000,133.570000,125.010000,133.570000,129.280000C133.570000,133.550000,130.110000,137.020000,125.830000,137.020000C121.560000,137.020000,118.090000,133.550000,118.090000,129.280000C118.090000,125.010000,121.560000,121.540000,125.830000,121.540000Z" opacity="0" clip-rule="evenodd" fill="rgb(43,42,41)" fill-rule="evenodd" stroke="none" stroke-width="1"/><g id="emkd1gxx4i0i11" clip-rule="evenodd"><g id="emkd1gxx4i0i12" opacity="0"><path id="emkd1gxx4i0i13" d="M25.010000,92.290000L34.780000,92.290000L34.780000,89.890000L27.870000,89.890000L27.870000,74.410000L25.010000,74.410000L25.010000,92.290000ZM45.640000,85.910000L45.640000,84.480000C45.640000,80.720000,44.640000,78.470000,40.890000,78.470000C36.650000,78.470000,35.900000,82.220000,35.900000,85.750000C35.900000,91.990000,38.630000,92.640000,40.840000,92.640000C43.760000,92.640000,45.570000,90.760000,45.570000,87.780000L43.010000,87.780000C43.010000,88.580000,42.790000,90.790000,40.860000,90.790000C38.830000,90.790000,38.610000,88.480000,38.610000,86.680000L38.610000,85.910000L45.640000,85.910000ZM38.610000,84.050000L38.610000,83.780000C38.610000,82.020000,39.130000,80.320000,40.860000,80.320000C42.390000,80.320000,42.940000,81.620000,42.940000,83.330000L42.940000,84.050000L38.610000,84.050000ZM50.350000,92.290000L53.500000,92.290000L57.060000,78.820000L54.180000,78.820000L52.050000,89.440000L52,89.440000L49.650000,78.820000L46.740000,78.820000L50.350000,92.290000ZM67.900000,85.910000L67.900000,84.480000C67.900000,80.720000,66.900000,78.470000,63.140000,78.470000C58.910000,78.470000,58.160000,82.220000,58.160000,85.750000C58.160000,91.990000,60.890000,92.640000,63.090000,92.640000C66.020000,92.640000,67.830000,90.760000,67.830000,87.780000L65.270000,87.780000C65.270000,88.580000,65.050000,90.790000,63.120000,90.790000C61.090000,90.790000,60.860000,88.480000,60.860000,86.680000L60.860000,85.910000L67.900000,85.910000ZM60.860000,84.050000L60.860000,83.780000C60.860000,82.020000,61.390000,80.320000,63.120000,80.320000C64.650000,80.320000,65.200000,81.620000,65.200000,83.330000L65.200000,84.050000L60.860000,84.050000ZM70.130000,92.290000L72.830000,92.290000L72.830000,83.250000C72.830000,81.500000,73.880000,80.620000,74.990000,80.620000C76.340000,80.620000,76.860000,81.300000,76.860000,83.050000L76.860000,92.290000L79.570000,92.290000L79.570000,82.120000C79.570000,79.400000,78.270000,78.470000,76.210000,78.470000C74.710000,78.470000,73.430000,79.190000,72.760000,80.400000L72.680000,80.400000L72.680000,78.820000L70.130000,78.820000L70.130000,92.290000ZM90.530000,82.750000L90.530000,82.150000C90.530000,80.470000,89.760000,78.470000,86.330000,78.470000C83.550000,78.470000,81.720000,79.650000,81.720000,82.170000C81.720000,84.330000,82.570000,85.350000,84.600000,86.060000L86.800000,86.830000C87.760000,87.160000,88.280000,87.810000,88.280000,88.810000C88.280000,90.040000,87.560000,90.790000,86.080000,90.790000C84.530000,90.790000,83.970000,89.940000,83.970000,88.380000L83.970000,87.960000L81.570000,87.960000L81.570000,88.460000C81.570000,91.060000,82.600000,92.640000,86,92.640000C88.730000,92.640000,90.830000,91.410000,90.830000,88.530000C90.830000,86.410000,89.910000,85.330000,87.910000,84.650000L86.180000,84.050000C84.750000,83.550000,84.280000,83.130000,84.280000,82.070000C84.280000,80.820000,85.130000,80.320000,86.200000,80.320000C87.610000,80.320000,87.980000,81.320000,87.980000,82.400000L87.980000,82.750000L90.530000,82.750000ZM92.840000,92.290000L95.540000,92.290000L95.540000,83.250000C95.540000,81.500000,96.590000,80.620000,97.700000,80.620000C99.050000,80.620000,99.570000,81.300000,99.570000,83.050000L99.570000,92.290000L102.280000,92.290000L102.280000,82.120000C102.280000,79.400000,100.980000,78.470000,98.920000,78.470000C97.540000,78.470000,96.370000,79.170000,95.620000,80.320000L95.540000,80.270000L95.540000,74.410000L92.840000,74.410000L92.840000,92.290000ZM111.770000,92.290000L114.320000,92.290000L114.320000,78.820000L111.620000,78.820000L111.620000,88.230000C111.620000,89.740000,110.560000,90.490000,109.410000,90.490000C108.260000,90.490000,107.590000,89.990000,107.590000,88.480000L107.590000,78.820000L104.880000,78.820000L104.880000,88.230000C104.880000,91.710000,106.230000,92.640000,108.240000,92.640000C109.740000,92.640000,111.020000,91.910000,111.690000,90.710000L111.770000,90.710000L111.770000,92.290000ZM117.050000,92.290000L119.750000,92.290000L119.750000,74.410000L117.050000,74.410000L117.050000,92.290000ZM122.610000,92.290000L125.310000,92.290000L125.310000,83.250000C125.310000,81.500000,126.360000,80.620000,127.440000,80.620000C128.570000,80.620000,129.090000,81.300000,129.090000,83.050000L129.090000,92.290000L131.800000,92.290000L131.800000,83.250000C131.800000,81.500000,132.850000,80.620000,133.950000,80.620000C135.050000,80.620000,135.580000,81.300000,135.580000,83.050000L135.580000,92.290000L138.280000,92.290000L138.280000,82.050000C138.280000,79.450000,136.900000,78.470000,135,78.470000C133.370000,78.470000,132.370000,79.220000,131.600000,80.520000C131.200000,79.400000,130.390000,78.470000,128.470000,78.470000C127.190000,78.470000,125.910000,79.190000,125.240000,80.400000L125.160000,80.400000L125.160000,78.820000L122.610000,78.820000L122.610000,92.290000ZM150.370000,85.910000L150.370000,84.480000C150.370000,80.720000,149.370000,78.470000,145.620000,78.470000C141.390000,78.470000,140.630000,82.220000,140.630000,85.750000C140.630000,91.990000,143.360000,92.640000,145.570000,92.640000C148.500000,92.640000,150.300000,90.760000,150.300000,87.780000L147.750000,87.780000C147.750000,88.580000,147.520000,90.790000,145.590000,90.790000C143.560000,90.790000,143.340000,88.480000,143.340000,86.680000L143.340000,85.910000L150.370000,85.910000ZM143.340000,84.050000L143.340000,83.780000C143.340000,82.020000,143.860000,80.320000,145.590000,80.320000C147.120000,80.320000,147.670000,81.620000,147.670000,83.330000L147.670000,84.050000L143.340000,84.050000Z" clip-rule="evenodd" fill="rgb(43,42,41)" stroke="none" stroke-width="1"/><path id="emkd1gxx4i0i14" d="M27.920000,96.680000L29.670000,96.680000C31.860000,96.680000,32.600000,97.800000,32.600000,99.650000C32.600000,101.810000,31.330000,102.600000,29.870000,102.600000L27.920000,102.600000L27.920000,96.680000ZM25.180000,111.750000L27.920000,111.750000L27.920000,104.670000L30.320000,104.670000C33.540000,104.670000,35.340000,102.680000,35.340000,99.600000C35.340000,96.680000,33.900000,94.610000,30.610000,94.610000L25.180000,94.610000L25.180000,111.750000ZM43.620000,111.750000L46.070000,111.750000L46.070000,98.840000L43.480000,98.840000L43.480000,107.860000C43.480000,109.300000,42.470000,110.020000,41.360000,110.020000C40.260000,110.020000,39.610000,109.540000,39.610000,108.100000L39.610000,98.840000L37.020000,98.840000L37.020000,107.860000C37.020000,111.200000,38.320000,112.090000,40.240000,112.090000C41.680000,112.090000,42.900000,111.390000,43.550000,110.240000L43.620000,110.240000L43.620000,111.750000ZM48.570000,111.750000L51.010000,111.750000L51.010000,110.170000L51.060000,110.170000C51.400000,111.010000,52.050000,112.090000,53.890000,112.090000C56.920000,112.090000,58.120000,109.570000,58.120000,105.130000C58.120000,99.390000,56.100000,98.500000,54.130000,98.500000C52.740000,98.500000,51.690000,99.200000,51.210000,100.350000L51.160000,100.350000L51.160000,94.610000L48.570000,94.610000L48.570000,111.750000ZM51.010000,105.440000C51.010000,102.340000,51.370000,100.560000,53.370000,100.560000C54.850000,100.560000,55.380000,101.760000,55.380000,105.250000C55.380000,108.170000,55,110.020000,53.200000,110.020000C51.420000,110.020000,51.010000,108.200000,51.010000,105.440000ZM73.840000,105.610000L73.840000,105.890000C73.840000,107.480000,73.580000,110.020000,71.300000,110.020000C69.280000,110.020000,68.370000,108.630000,68.370000,103.110000C68.370000,97.590000,69.280000,96.340000,71.300000,96.340000C73.270000,96.270000,73.750000,98.090000,73.750000,99.680000L73.750000,99.960000L76.480000,99.960000L76.480000,99.650000C76.480000,97.880000,76.190000,94.270000,71.320000,94.270000C66.980000,94.270000,65.630000,97.060000,65.630000,103.180000C65.630000,109.300000,66.980000,112.090000,71.300000,112.090000C75.330000,112.090000,76.580000,109.060000,76.580000,105.970000L76.580000,105.610000L73.840000,105.610000ZM77.830000,105.290000C77.830000,109.300000,79.050000,112.090000,82.630000,112.090000C86.230000,112.090000,87.450000,109.300000,87.450000,105.290000C87.450000,101.280000,86.400000,98.500000,82.630000,98.500000C78.880000,98.500000,77.830000,101.280000,77.830000,105.290000ZM80.420000,105.290000C80.420000,102.440000,80.760000,100.420000,82.630000,100.420000C84.520000,100.420000,84.860000,102.440000,84.860000,105.290000C84.860000,108.580000,84.520000,110.170000,82.630000,110.170000C80.760000,110.170000,80.420000,108.580000,80.420000,105.290000ZM89.570000,111.750000L92.160000,111.750000L92.160000,103.080000C92.160000,101.400000,93.170000,100.560000,94.200000,100.560000C95.280000,100.560000,95.780000,101.210000,95.780000,102.890000L95.780000,111.750000L98.370000,111.750000L98.370000,103.080000C98.370000,101.400000,99.380000,100.560000,100.440000,100.560000C101.500000,100.560000,102,101.210000,102,102.890000L102,111.750000L104.590000,111.750000L104.590000,101.930000C104.590000,99.440000,103.270000,98.500000,101.450000,98.500000C99.890000,98.500000,98.930000,99.220000,98.180000,100.470000C97.800000,99.390000,97.030000,98.500000,95.180000,98.500000C93.960000,98.500000,92.730000,99.200000,92.090000,100.350000L92.010000,100.350000L92.010000,98.840000L89.570000,98.840000L89.570000,111.750000ZM107.210000,115.980000L109.800000,115.980000L109.800000,110.240000L109.850000,110.240000C110.330000,111.390000,111.390000,112.090000,112.780000,112.090000C114.550000,112.090000,116.760000,110.890000,116.760000,105.460000C116.760000,101.020000,115.560000,98.500000,112.610000,98.500000C111.190000,98.500000,110.230000,99.270000,109.710000,100.420000L109.660000,100.420000L109.660000,98.840000L107.210000,98.840000L107.210000,115.980000ZM109.660000,105.150000C109.660000,102.390000,110.070000,100.560000,111.840000,100.560000C113.640000,100.560000,114.030000,102.410000,114.030000,105.340000C114.030000,108.920000,113.350000,110.020000,111.870000,110.020000C110.040000,110.020000,109.660000,108.250000,109.660000,105.150000ZM127.230000,101.680000C127.230000,99.390000,125.400000,98.500000,123.120000,98.500000C119.720000,98.500000,118.590000,100.010000,118.590000,102.770000L121.040000,102.770000C121.040000,101.510000,121.280000,100.280000,123,100.280000C124.370000,100.280000,124.780000,101.020000,124.780000,102.210000C124.780000,103.340000,124.200000,103.610000,123.270000,103.870000L121.250000,104.420000C119.500000,105,118.250000,105.600000,118.250000,108.470000C118.250000,110.930000,119.550000,112.090000,121.610000,112.090000C123.120000,112.090000,124.130000,111.460000,124.830000,110.190000L124.880000,110.190000C124.950000,111.440000,125.910000,111.890000,127.060000,111.890000C127.560000,111.890000,128.020000,111.730000,128.330000,111.580000L128.330000,109.900000C128.240000,109.950000,128.070000,109.970000,127.900000,109.970000C127.520000,109.970000,127.230000,109.550000,127.230000,109.070000L127.230000,101.680000ZM124.780000,107.100000C124.780000,108.990000,124.010000,110.170000,122.450000,110.170000C121.370000,110.170000,120.840000,109.310000,120.840000,108.230000C120.840000,107.270000,121.160000,106.510000,121.900000,106.150000C122.670000,105.790000,124.110000,105.480000,124.780000,104.950000L124.780000,107.100000ZM129.870000,111.750000L132.460000,111.750000L132.460000,103.080000C132.460000,101.400000,133.470000,100.560000,134.530000,100.560000C135.820000,100.560000,136.330000,101.210000,136.330000,102.890000L136.330000,111.750000L138.920000,111.750000L138.920000,102C138.920000,99.390000,137.670000,98.500000,135.700000,98.500000C134.260000,98.500000,133.040000,99.200000,132.390000,100.350000L132.320000,100.350000L132.320000,98.840000L129.870000,98.840000L129.870000,111.750000ZM140.360000,98.840000L144.030000,112.040000L143.700000,113.090000C143.410000,113.910000,142.830000,114.100000,141.940000,114.100000C141.660000,114.100000,141.390000,114.050000,141.100000,114.010000L141.100000,116.070000C141.440000,116.120000,141.800000,116.170000,142.140000,116.170000C144.800000,116.220000,145.640000,115.760000,146.650000,112.230000L150.200000,98.840000L147.490000,98.840000L145.420000,108.530000L145.380000,108.530000L143.140000,98.840000L140.360000,98.840000Z" clip-rule="evenodd" fill="rgb(43,42,41)" stroke="none" stroke-width="1"/></g></g><path id="emkd1gxx4i0i15" d="M41.470000,165.530000L51.860000,165.530000L51.860000,163L44.470000,163L44.470000,156.980000L51.230000,156.980000L51.230000,154.450000L44.470000,154.450000L44.470000,149.230000L51.650000,149.230000L51.650000,146.690000L41.470000,146.690000L41.470000,165.530000ZM62.780000,155.480000L62.780000,154.850000C62.780000,153.080000,61.960000,150.970000,58.350000,150.970000C55.420000,150.970000,53.500000,152.210000,53.500000,154.870000C53.500000,157.140000,54.390000,158.220000,56.530000,158.960000L58.850000,159.780000C59.850000,160.120000,60.410000,160.810000,60.410000,161.860000C60.410000,163.160000,59.640000,163.950000,58.090000,163.950000C56.450000,163.950000,55.870000,163.050000,55.870000,161.410000L55.870000,160.970000L53.340000,160.970000L53.340000,161.490000C53.340000,164.240000,54.420000,165.900000,58.010000,165.900000C60.880000,165.900000,63.100000,164.610000,63.100000,161.570000C63.100000,159.330000,62.120000,158.200000,60.010000,157.480000L58.190000,156.850000C56.690000,156.320000,56.190000,155.870000,56.190000,154.770000C56.190000,153.450000,57.080000,152.920000,58.220000,152.920000C59.700000,152.920000,60.090000,153.980000,60.090000,155.110000L60.090000,155.480000L62.780000,155.480000ZM63.940000,153.450000L65.890000,153.450000L65.890000,162.260000C65.890000,165.160000,66.840000,165.690000,68.770000,165.690000C69.670000,165.690000,70.460000,165.610000,71.060000,165.450000L71.060000,163.340000C70.800000,163.390000,70.460000,163.420000,70.040000,163.420000C69.060000,163.420000,68.740000,163.020000,68.740000,161.920000L68.740000,153.450000L71.060000,153.450000L71.060000,151.340000L68.740000,151.340000L68.740000,147.300000L65.890000,147.300000L65.890000,151.340000L63.940000,151.340000L63.940000,153.450000ZM72.830000,165.530000L75.840000,165.530000L75.840000,162.050000L72.830000,162.050000L72.830000,165.530000ZM92.300000,165.530000L92.300000,146.850000L90.110000,146.850000L90.110000,147.220000C89.580000,149.600000,87.500000,150.020000,85.710000,150.020000L85.420000,150.020000L85.420000,151.970000L89.290000,151.970000L89.290000,165.530000L92.300000,165.530000ZM97.500000,161.360000C97.500000,164.420000,99.260000,165.900000,102.540000,165.900000C107.470000,165.900000,108.500000,161.390000,108.500000,155.800000C108.500000,150.440000,107.600000,146.850000,102.880000,146.850000C98.920000,146.850000,97.150000,149.410000,97.150000,153.710000C97.150000,157.430000,99.210000,159.280000,101.770000,159.280000C103.410000,159.280000,104.670000,158.640000,105.410000,157.300000L105.490000,157.350000C105.490000,160.070000,105.330000,163.790000,102.510000,163.790000C101.010000,163.790000,100.500000,162.440000,100.500000,161.360000L97.500000,161.360000ZM105.230000,152.840000C105.230000,155.080000,104.830000,157.010000,102.640000,157.010000C100.930000,157.010000,100.160000,155.560000,100.160000,152.970000C100.160000,150.780000,100.790000,148.960000,102.640000,148.960000C104.410000,148.960000,105.230000,150.680000,105.230000,152.840000ZM113.140000,151.760000C113.140000,150.280000,113.620000,148.960000,115.490000,148.960000C117.360000,148.960000,117.840000,150.280000,117.840000,151.760000C117.840000,153.260000,117.360000,154.610000,115.490000,154.610000C113.620000,154.610000,113.140000,153.260000,113.140000,151.760000ZM112.850000,160.250000C112.850000,158.280000,113.380000,156.720000,115.490000,156.720000C117.600000,156.720000,118.130000,158.280000,118.130000,160.250000C118.130000,162.210000,117.600000,163.790000,115.490000,163.790000C113.380000,163.790000,112.850000,162.210000,112.850000,160.250000ZM115.490000,165.900000C119.310000,165.900000,121.130000,163.970000,121.130000,160.310000C121.130000,157.540000,119.790000,156.010000,117.940000,155.640000L117.940000,155.580000C119.550000,155.030000,120.530000,153.790000,120.530000,151.550000C120.530000,148.650000,118.600000,146.850000,115.490000,146.850000C112.380000,146.850000,110.450000,148.650000,110.450000,151.550000C110.450000,153.790000,111.430000,155.030000,113.030000,155.580000L113.030000,155.640000C111.190000,156.010000,109.840000,157.540000,109.840000,160.310000C109.840000,163.970000,111.660000,165.900000,115.490000,165.900000ZM122.820000,161.360000C122.820000,164.420000,124.590000,165.900000,127.860000,165.900000C132.790000,165.900000,133.820000,161.390000,133.820000,155.800000C133.820000,150.440000,132.930000,146.850000,128.200000,146.850000C124.250000,146.850000,122.480000,149.410000,122.480000,153.710000C122.480000,157.430000,124.540000,159.280000,127.100000,159.280000C128.730000,159.280000,130,158.640000,130.740000,157.300000L130.810000,157.350000C130.810000,160.070000,130.660000,163.790000,127.830000,163.790000C126.330000,163.790000,125.830000,162.440000,125.830000,161.360000L122.820000,161.360000ZM130.550000,152.840000C130.550000,155.080000,130.160000,157.010000,127.970000,157.010000C126.250000,157.010000,125.490000,155.560000,125.490000,152.970000C125.490000,150.780000,126.120000,148.960000,127.970000,148.960000C129.730000,148.960000,130.550000,150.680000,130.550000,152.840000Z" opacity="0" clip-rule="evenodd" fill="rgb(43,42,41)" stroke="none" stroke-width="1"/></g></g></svg>